<svg xmlns="http://www.w3.org/2000/svg" version="1.1" xmlns:xlink="http://www.w3.org/1999/xlink" xmlns:svgjs="http://svgjs.dev/svgjs" width="1500" height="1500" viewBox="0 0 1500 1500"><rect width="1500" height="1500" fill="#ffffff"></rect><g transform="matrix(0.6666666666666666,0,0,0.6666666666666666,249.39393939393938,513.8181972512973)"><svg viewBox="0 0 396 187" data-background-color="#fafafa" preserveAspectRatio="xMidYMid meet" height="708" width="1500" xmlns="http://www.w3.org/2000/svg" xmlns:xlink="http://www.w3.org/1999/xlink"><g id="tight-bounds" transform="matrix(1,0,0,1,0.2400000000000091,0.07202778391400955)"><svg viewBox="0 0 395.52 186.85594443217198" height="186.85594443217198" width="395.52"><g><svg viewBox="0 0 692.0090832806669 326.9266050061958" height="186.85594443217198" width="395.52"><g><rect width="21.333269629316284" height="237.74329814126392" x="451.3662555741264" y="44.59165343246595" fill="#000000" opacity="1" stroke-width="0" stroke="transparent" fill-opacity="1" class="rect-yte-0" data-fill-palette-color="primary" rx="1%" id="yte-0" data-palette-color="#130912"></rect></g><g transform="matrix(1,0,0,1,0,45.18305467162331)"><svg viewBox="0 0 395.52 236.5604956629492" height="236.5604956629492" width="395.52"><g id="textblocktransform"><svg viewBox="0 0 395.52 236.5604956629492" height="236.5604956629492" width="395.52" id="textblock"><g><svg viewBox="0 0 395.52 236.5604956629492" height="236.5604956629492" width="395.52"><g transform="matrix(1,0,0,1,0,0)"><svg width="395.52" viewBox="3 -34.35 59.1 35.35" height="236.5604956629492" data-palette-color="#130912"><g class="wordmark-text-0" data-fill-palette-color="primary" id="text-0"><path d="M13.6 0.2L13.6 0.2Q13.6 1 12.65 1L12.65 1Q11.89 1 10.71 0.01 9.52-0.98 8.19-2.7 6.86-4.42 5.68-6.68 4.49-8.94 3.75-11.5 3-14.06 3-16.7L3-16.7Q3-19.34 3.72-21.9 4.44-24.46 5.6-26.71 6.76-28.96 8.11-30.68 9.45-32.4 10.69-33.37 11.94-34.35 12.79-34.35L12.79-34.35Q13.11-34.35 13.35-34.17 13.6-33.98 13.6-33.5L13.6-33.5Q13.6-32.93 13.06-32.32 12.52-31.71 11.74-30.69 10.96-29.66 10.17-27.93 9.38-26.2 8.84-23.45 8.3-20.7 8.3-16.6L8.3-16.6Q8.3-12.5 8.84-9.79 9.38-7.08 10.17-5.4 10.96-3.71 11.74-2.72 12.52-1.73 13.06-1.09 13.6-0.44 13.6 0.2ZM48.51-2.15L48.51 0 39.74 0 39.74-1.54 30.44-14.89 26.95-14.89 26.95-3.44Q26.95-3.08 27.23-2.73 27.51-2.39 28.05-2.34L28.05-2.34 30.91-2.15 30.91 0 18.21 0 18.21-2.15 20.85-2.34Q21.38-2.39 21.64-2.73 21.9-3.08 21.9-3.44L21.9-3.44 21.9-30.1Q21.9-30.47 21.64-30.82 21.38-31.18 20.85-31.2L20.85-31.2 18.21-31.4 18.21-33.54 30.91-33.54 30.91-31.4 28.05-31.2Q27.51-31.18 27.23-30.82 26.95-30.47 26.95-30.1L26.95-30.1 26.95-16.99 28.76-16.99 39.65-30.3Q39.74-30.4 39.74-30.57L39.74-30.57Q39.74-31.1 39.26-31.15L39.26-31.15 36.69-31.4 36.69-33.54 47.29-33.54 47.29-31.4Q47.29-31.4 46.49-31.31 45.7-31.23 44.87-31.13 44.04-31.03 43.89-31.01L43.89-31.01 33.69-18.8 44.89-2.39 48.51-2.15ZM62.1-16.65L62.1-16.65Q62.1-14.01 61.38-11.45 60.66-8.89 59.5-6.64 58.34-4.39 57-2.67 55.66-0.95 54.41 0.02 53.17 1 52.31 1L52.31 1Q52 1 51.75 0.82 51.51 0.63 51.51 0.15L51.51 0.15Q51.51-0.42 52.05-1.03 52.58-1.64 53.38-2.66 54.17-3.69 54.95-5.42 55.73-7.15 56.27-9.9 56.81-12.65 56.81-16.75L56.81-16.75Q56.81-20.85 56.27-23.56 55.73-26.27 54.95-27.95 54.17-29.64 53.38-30.63 52.58-31.62 52.05-32.26 51.51-32.91 51.51-33.54L51.51-33.54Q51.51-34.35 52.46-34.35L52.46-34.35Q53.22-34.35 54.4-33.36 55.59-32.37 56.92-30.65 58.25-28.93 59.43-26.67 60.62-24.41 61.36-21.85 62.1-19.29 62.1-16.65Z" fill="#000000" data-fill-palette-color="primary"></path></g></svg></g></svg></g></svg></g></svg></g><g transform="matrix(1,0,0,1,528.5457807775691,0)"><svg viewBox="0 0 163.4633025030979 326.9266050061958" height="326.9266050061958" width="163.4633025030979"><g><svg xmlns="http://www.w3.org/2000/svg" viewBox="2 2 10 20" x="0" y="0" height="326.9266050061958" width="163.4633025030979" class="icon-icon-0" data-fill-palette-color="accent" id="icon-0"></svg></g></svg></g></svg></g><defs></defs></svg><rect width="395.52" height="186.85594443217198" fill="none" stroke="none" visibility="hidden"></rect></g></svg></g></svg>